<svg width="262" height="186" viewBox="0 0 262 186" fill="none" xmlns="http://www.w3.org/2000/svg">
<mask id="path-1-inside-1_100_3" fill="white">
<path d="M41.765 92.75C41.765 101.08 42.53 108.73 44.06 115.7C45.59 122.5 47.8 128.365 50.69 133.295C53.58 138.055 56.98 141.795 60.89 144.515C64.97 147.065 69.475 148.34 74.405 148.34C79.335 148.34 83.755 147.065 87.665 144.515C91.745 141.795 95.23 138.055 98.12 133.295C101.01 128.365 103.22 122.5 104.75 115.7C106.28 108.73 107.045 101.08 107.045 92.75C107.045 84.42 106.28 76.855 104.75 70.055C103.22 63.085 101.01 57.22 98.12 52.46C95.23 47.53 91.745 43.79 87.665 41.24C83.755 38.52 79.335 37.16 74.405 37.16C69.475 37.16 64.97 38.52 60.89 41.24C56.98 43.79 53.58 47.53 50.69 52.46C47.8 57.22 45.59 63.085 44.06 70.055C42.53 76.855 41.765 84.42 41.765 92.75ZM0.200001 92.75C0.200001 73.37 3.26 56.795 9.38 43.025C15.67 29.255 24.425 18.715 35.645 11.405C46.865 3.92499 59.785 0.184985 74.405 0.184985C89.705 0.184985 102.88 3.92499 113.93 11.405C124.98 18.715 133.48 29.255 139.43 43.025C145.55 56.795 148.61 73.37 148.61 92.75C148.61 112.13 145.55 128.705 139.43 142.475C133.48 156.245 124.98 166.87 113.93 174.35C102.88 181.66 89.705 185.315 74.405 185.315C59.785 185.315 46.865 181.66 35.645 174.35C24.425 166.87 15.67 156.245 9.38 142.475C3.26 128.705 0.200001 112.13 0.200001 92.75ZM176.178 55.01V17.525L261.858 0.184985V182H220.293V44.045L176.178 55.01Z"/>
</mask>
<path d="M44.06 115.7L42.1065 116.129L42.1088 116.139L44.06 115.7ZM50.69 133.295L48.9646 134.306L48.9724 134.32L48.9804 134.333L50.69 133.295ZM60.89 144.515L59.7479 146.157L59.7883 146.185L59.83 146.211L60.89 144.515ZM87.665 144.515L88.7575 146.19L88.766 146.185L88.7744 146.179L87.665 144.515ZM98.12 133.295L99.8296 134.333L99.8376 134.32L99.8454 134.306L98.12 133.295ZM104.75 115.7L106.701 116.139L106.703 116.129L104.75 115.7ZM104.75 70.055L102.796 70.4838L102.799 70.494L104.75 70.055ZM98.12 52.46L96.3946 53.4714L96.4024 53.4848L96.4104 53.498L98.12 52.46ZM87.665 41.24L86.5229 42.8818L86.5633 42.9099L86.605 42.936L87.665 41.24ZM60.89 41.24L61.9825 42.9152L61.991 42.9097L61.9994 42.9041L60.89 41.24ZM50.69 52.46L52.3996 53.498L52.4076 53.4848L52.4154 53.4714L50.69 52.46ZM44.06 70.055L46.0112 70.494L46.0135 70.4838L44.06 70.055ZM9.38 43.025L7.56081 42.194L7.55655 42.2033L7.55238 42.2127L9.38 43.025ZM35.645 11.405L36.7368 13.0807L36.7456 13.075L36.7544 13.0691L35.645 11.405ZM113.93 11.405L112.809 13.0612L112.818 13.0672L112.827 13.073L113.93 11.405ZM139.43 43.025L137.594 43.8183L137.598 43.8278L137.602 43.8373L139.43 43.025ZM139.43 142.475L137.602 141.663L137.598 141.672L137.594 141.682L139.43 142.475ZM113.93 174.35L115.033 176.018L115.042 176.012L115.051 176.006L113.93 174.35ZM35.645 174.35L34.5356 176.014L34.5444 176.02L34.5532 176.026L35.645 174.35ZM9.38 142.475L7.55238 143.287L7.55655 143.297L7.56081 143.306L9.38 142.475ZM39.765 92.75C39.765 101.201 40.541 108.997 42.1065 116.129L46.0135 115.271C44.519 108.463 43.765 100.959 43.765 92.75H39.765ZM42.1088 116.139C43.6745 123.098 45.9503 129.164 48.9646 134.306L52.4154 132.284C49.6497 127.566 47.5055 121.902 46.0112 115.261L42.1088 116.139ZM48.9804 134.333C51.9911 139.292 55.5731 143.253 59.7479 146.157L62.0321 142.873C58.3869 140.337 55.1689 136.818 52.3996 132.257L48.9804 134.333ZM59.83 146.211C64.236 148.965 69.1099 150.34 74.405 150.34V146.34C69.8401 146.34 65.704 145.165 61.95 142.819L59.83 146.211ZM74.405 150.34C79.7001 150.34 84.5039 148.964 88.7575 146.19L86.5725 142.84C83.0061 145.166 78.9699 146.34 74.405 146.34V150.34ZM88.7744 146.179C93.1289 143.276 96.8084 139.309 99.8296 134.333L96.4104 132.257C93.6516 136.801 90.3611 140.314 86.5556 142.851L88.7744 146.179ZM99.8454 134.306C102.86 129.164 105.136 123.098 106.701 116.139L102.799 115.261C101.305 121.902 99.1603 127.566 96.3946 132.284L99.8454 134.306ZM106.703 116.129C108.269 108.997 109.045 101.201 109.045 92.75H105.045C105.045 100.959 104.291 108.463 102.797 115.271L106.703 116.129ZM109.045 92.75C109.045 84.3 108.269 76.5848 106.701 69.616L102.799 70.494C104.291 77.1252 105.045 84.54 105.045 92.75H109.045ZM106.703 69.6262C105.139 62.4986 102.861 56.4147 99.8296 51.422L96.4104 53.498C99.1591 58.0252 101.301 63.6714 102.797 70.4838L106.703 69.6262ZM99.8454 51.4486C96.8226 46.2921 93.1258 42.2945 88.725 39.544L86.605 42.936C90.3642 45.2855 93.6374 48.7679 96.3946 53.4714L99.8454 51.4486ZM88.8071 39.5982C84.5496 36.6364 79.7281 35.16 74.405 35.16V39.16C78.9419 39.16 82.9604 40.4035 86.5229 42.8818L88.8071 39.5982ZM74.405 35.16C69.0824 35.16 64.191 36.6356 59.7806 39.5759L61.9994 42.9041C65.749 40.4044 69.8676 39.16 74.405 39.16V35.16ZM59.7975 39.5648C55.5762 42.3178 51.9768 46.3102 48.9646 51.4486L52.4154 53.4714C55.1833 48.7498 58.3838 45.2622 61.9825 42.9152L59.7975 39.5648ZM48.9804 51.422C45.9491 56.4147 43.6711 62.4986 42.1065 69.6262L46.0135 70.4838C47.5089 63.6714 49.6509 58.0252 52.3996 53.498L48.9804 51.422ZM42.1088 69.616C40.5408 76.5848 39.765 84.3 39.765 92.75H43.765C43.765 84.54 44.5192 77.1252 46.0112 70.494L42.1088 69.616ZM2.2 92.75C2.2 73.5729 5.22883 57.2896 11.2076 43.8373L7.55238 42.2127C1.29117 56.3004 -1.8 73.1671 -1.8 92.75H2.2ZM11.1992 43.856C17.3528 30.3846 25.8745 20.1577 36.7368 13.0807L34.5532 9.72927C22.9755 17.2723 13.9872 28.1254 7.56081 42.194L11.1992 43.856ZM36.7544 13.0691C47.6181 5.82663 60.1451 2.18498 74.405 2.18498V-1.81502C59.4249 -1.81502 46.1119 2.02334 34.5356 9.74089L36.7544 13.0691ZM74.405 2.18498C89.3657 2.18498 102.137 5.83687 112.809 13.0612L115.051 9.74877C103.623 2.01311 90.0443 -1.81502 74.405 -1.81502V2.18498ZM112.827 13.073C123.511 20.1413 131.777 30.3562 137.594 43.8183L141.266 42.2317C135.183 28.1537 126.449 17.2887 115.033 9.73695L112.827 13.073ZM137.602 43.8373C143.581 57.2896 146.61 73.5729 146.61 92.75H150.61C150.61 73.1671 147.519 56.3004 141.258 42.2127L137.602 43.8373ZM146.61 92.75C146.61 111.927 143.581 128.21 137.602 141.663L141.258 143.287C147.519 129.2 150.61 112.333 150.61 92.75H146.61ZM137.594 141.682C131.776 155.147 123.505 165.453 112.809 172.694L115.051 176.006C126.455 168.287 135.184 157.343 141.266 143.268L137.594 141.682ZM112.827 172.682C102.152 179.743 89.3749 183.315 74.405 183.315V187.315C90.0351 187.315 103.608 183.577 115.033 176.018L112.827 172.682ZM74.405 183.315C60.1356 183.315 47.6023 179.753 36.7368 172.674L34.5532 176.026C46.1277 183.567 59.4344 187.315 74.405 187.315V183.315ZM36.7544 172.686C25.8807 165.437 17.3541 155.118 11.1992 141.644L7.56081 143.306C13.9859 157.372 22.9693 168.303 34.5356 176.014L36.7544 172.686ZM11.2076 141.663C5.22883 128.21 2.2 111.927 2.2 92.75H-1.8C-1.8 112.333 1.29117 129.2 7.55238 143.287L11.2076 141.663ZM176.178 55.01H174.178V57.568L176.66 56.9509L176.178 55.01ZM176.178 17.525L175.781 15.5647L174.178 15.8892V17.525H176.178ZM261.858 0.184985H263.858V-2.26032L261.461 -1.77527L261.858 0.184985ZM261.858 182V184H263.858V182H261.858ZM220.293 182H218.293V184H220.293V182ZM220.293 44.045H222.293V41.487L219.81 42.1041L220.293 44.045ZM178.178 55.01V17.525H174.178V55.01H178.178ZM176.575 19.4852L262.255 2.14524L261.461 -1.77527L175.781 15.5647L176.575 19.4852ZM259.858 0.184985V182H263.858V0.184985H259.858ZM261.858 180H220.293V184H261.858V180ZM222.293 182V44.045H218.293V182H222.293ZM219.81 42.1041L175.695 53.0691L176.66 56.9509L220.775 45.9859L219.81 42.1041Z" fill="#19376D" mask="url(#path-1-inside-1_100_3)"/>
</svg>
