<svg width="316" height="187" viewBox="0 0 316 187" fill="none" xmlns="http://www.w3.org/2000/svg">
<mask id="path-1-inside-1_100_4" fill="white">
<path d="M41.765 93.75C41.765 102.08 42.53 109.73 44.06 116.7C45.59 123.5 47.8 129.365 50.69 134.295C53.58 139.055 56.98 142.795 60.89 145.515C64.97 148.065 69.475 149.34 74.405 149.34C79.335 149.34 83.755 148.065 87.665 145.515C91.745 142.795 95.23 139.055 98.12 134.295C101.01 129.365 103.22 123.5 104.75 116.7C106.28 109.73 107.045 102.08 107.045 93.75C107.045 85.42 106.28 77.855 104.75 71.055C103.22 64.085 101.01 58.22 98.12 53.46C95.23 48.53 91.745 44.79 87.665 42.24C83.755 39.52 79.335 38.16 74.405 38.16C69.475 38.16 64.97 39.52 60.89 42.24C56.98 44.79 53.58 48.53 50.69 53.46C47.8 58.22 45.59 64.085 44.06 71.055C42.53 77.855 41.765 85.42 41.765 93.75ZM0.200001 93.75C0.200001 74.37 3.26 57.795 9.38 44.025C15.67 30.255 24.425 19.715 35.645 12.405C46.865 4.92499 59.785 1.18498 74.405 1.18498C89.705 1.18498 102.88 4.92499 113.93 12.405C124.98 19.715 133.48 30.255 139.43 44.025C145.55 57.795 148.61 74.37 148.61 93.75C148.61 113.13 145.55 129.705 139.43 143.475C133.48 157.245 124.98 167.87 113.93 175.35C102.88 182.66 89.705 186.315 74.405 186.315C59.785 186.315 46.865 182.66 35.645 175.35C24.425 167.87 15.67 157.245 9.38 143.475C3.26 129.705 0.200001 113.13 0.200001 93.75ZM163.938 183L243.498 100.635C248.258 95.365 252.338 90.605 255.738 86.355C259.308 82.105 261.943 77.94 263.643 73.86C265.513 69.61 266.448 65.105 266.448 60.345C266.448 57.625 265.938 54.905 264.918 52.185C263.898 49.465 262.368 47.085 260.328 45.045C258.288 42.835 255.738 41.135 252.678 39.945C249.618 38.585 246.048 37.905 241.968 37.905C236.528 37.905 231.683 39.265 227.433 41.985C223.353 44.705 220.208 48.53 217.998 53.46C215.958 58.39 214.938 64.085 214.938 70.545H172.608C172.608 57.795 175.243 46.15 180.513 35.61C185.783 25.07 193.688 16.655 204.228 10.365C214.938 4.07499 227.943 0.929988 243.243 0.929988C254.293 0.929988 264.068 2.62999 272.568 6.03C281.068 9.26 288.123 13.68 293.733 19.29C299.513 24.73 303.848 30.765 306.738 37.395C309.628 44.025 311.073 50.74 311.073 57.54C311.073 67.23 308.693 76.155 303.933 84.315C299.173 92.305 292.968 99.615 285.318 106.245L243.753 143.475H315.153V183H163.938Z"/>
</mask>
<path d="M44.06 116.7L42.1065 117.129L42.1088 117.139L44.06 116.7ZM50.69 134.295L48.9646 135.306L48.9724 135.32L48.9804 135.333L50.69 134.295ZM60.89 145.515L59.7479 147.157L59.7883 147.185L59.83 147.211L60.89 145.515ZM87.665 145.515L88.7575 147.19L88.766 147.185L88.7744 147.179L87.665 145.515ZM98.12 134.295L99.8296 135.333L99.8376 135.32L99.8454 135.306L98.12 134.295ZM104.75 116.7L106.701 117.139L106.703 117.129L104.75 116.7ZM104.75 71.055L102.796 71.4838L102.799 71.494L104.75 71.055ZM98.12 53.46L96.3946 54.4714L96.4024 54.4848L96.4104 54.498L98.12 53.46ZM87.665 42.24L86.5229 43.8818L86.5633 43.9099L86.605 43.936L87.665 42.24ZM60.89 42.24L61.9825 43.9152L61.991 43.9097L61.9994 43.9041L60.89 42.24ZM50.69 53.46L52.3996 54.498L52.4076 54.4848L52.4154 54.4714L50.69 53.46ZM44.06 71.055L46.0112 71.494L46.0135 71.4838L44.06 71.055ZM9.38 44.025L7.56081 43.194L7.55655 43.2033L7.55238 43.2127L9.38 44.025ZM35.645 12.405L36.7368 14.0807L36.7456 14.075L36.7544 14.0691L35.645 12.405ZM113.93 12.405L112.809 14.0612L112.818 14.0672L112.827 14.073L113.93 12.405ZM139.43 44.025L137.594 44.8183L137.598 44.8278L137.602 44.8373L139.43 44.025ZM139.43 143.475L137.602 142.663L137.598 142.672L137.594 142.682L139.43 143.475ZM113.93 175.35L115.033 177.018L115.042 177.012L115.051 177.006L113.93 175.35ZM35.645 175.35L34.5356 177.014L34.5444 177.02L34.5532 177.026L35.645 175.35ZM9.38 143.475L7.55238 144.287L7.55655 144.297L7.56081 144.306L9.38 143.475ZM39.765 93.75C39.765 102.201 40.541 109.997 42.1065 117.129L46.0135 116.271C44.519 109.463 43.765 101.959 43.765 93.75H39.765ZM42.1088 117.139C43.6745 124.098 45.9503 130.164 48.9646 135.306L52.4154 133.284C49.6497 128.566 47.5055 122.902 46.0112 116.261L42.1088 117.139ZM48.9804 135.333C51.9911 140.292 55.5731 144.253 59.7479 147.157L62.0321 143.873C58.3869 141.337 55.1689 137.818 52.3996 133.257L48.9804 135.333ZM59.83 147.211C64.236 149.965 69.1099 151.34 74.405 151.34V147.34C69.8401 147.34 65.704 146.165 61.95 143.819L59.83 147.211ZM74.405 151.34C79.7001 151.34 84.5039 149.964 88.7575 147.19L86.5725 143.84C83.0061 146.166 78.9699 147.34 74.405 147.34V151.34ZM88.7744 147.179C93.1289 144.276 96.8084 140.309 99.8296 135.333L96.4104 133.257C93.6516 137.801 90.3611 141.314 86.5556 143.851L88.7744 147.179ZM99.8454 135.306C102.86 130.164 105.136 124.098 106.701 117.139L102.799 116.261C101.305 122.902 99.1603 128.566 96.3946 133.284L99.8454 135.306ZM106.703 117.129C108.269 109.997 109.045 102.201 109.045 93.75H105.045C105.045 101.959 104.291 109.463 102.797 116.271L106.703 117.129ZM109.045 93.75C109.045 85.3 108.269 77.5848 106.701 70.616L102.799 71.494C104.291 78.1252 105.045 85.54 105.045 93.75H109.045ZM106.703 70.6262C105.139 63.4986 102.861 57.4147 99.8296 52.422L96.4104 54.498C99.1591 59.0252 101.301 64.6714 102.797 71.4838L106.703 70.6262ZM99.8454 52.4486C96.8226 47.2921 93.1258 43.2945 88.725 40.544L86.605 43.936C90.3642 46.2855 93.6374 49.7679 96.3946 54.4714L99.8454 52.4486ZM88.8071 40.5982C84.5496 37.6364 79.7281 36.16 74.405 36.16V40.16C78.9419 40.16 82.9604 41.4035 86.5229 43.8818L88.8071 40.5982ZM74.405 36.16C69.0824 36.16 64.191 37.6356 59.7806 40.5759L61.9994 43.9041C65.749 41.4044 69.8676 40.16 74.405 40.16V36.16ZM59.7975 40.5648C55.5762 43.3178 51.9768 47.3102 48.9646 52.4486L52.4154 54.4714C55.1833 49.7498 58.3838 46.2622 61.9825 43.9152L59.7975 40.5648ZM48.9804 52.422C45.9491 57.4147 43.6711 63.4986 42.1065 70.6262L46.0135 71.4838C47.5089 64.6714 49.6509 59.0252 52.3996 54.498L48.9804 52.422ZM42.1088 70.616C40.5408 77.5848 39.765 85.3 39.765 93.75H43.765C43.765 85.54 44.5192 78.1252 46.0112 71.494L42.1088 70.616ZM2.2 93.75C2.2 74.5729 5.22883 58.2896 11.2076 44.8373L7.55238 43.2127C1.29117 57.3004 -1.8 74.1671 -1.8 93.75H2.2ZM11.1992 44.856C17.3528 31.3846 25.8745 21.1577 36.7368 14.0807L34.5532 10.7293C22.9755 18.2723 13.9872 29.1254 7.56081 43.194L11.1992 44.856ZM36.7544 14.0691C47.6181 6.82663 60.1451 3.18498 74.405 3.18498V-0.815015C59.4249 -0.815015 46.1119 3.02334 34.5356 10.7409L36.7544 14.0691ZM74.405 3.18498C89.3657 3.18498 102.137 6.83687 112.809 14.0612L115.051 10.7488C103.623 3.01311 90.0443 -0.815015 74.405 -0.815015V3.18498ZM112.827 14.073C123.511 21.1413 131.777 31.3562 137.594 44.8183L141.266 43.2317C135.183 29.1537 126.449 18.2887 115.033 10.737L112.827 14.073ZM137.602 44.8373C143.581 58.2896 146.61 74.5729 146.61 93.75H150.61C150.61 74.1671 147.519 57.3004 141.258 43.2127L137.602 44.8373ZM146.61 93.75C146.61 112.927 143.581 129.21 137.602 142.663L141.258 144.287C147.519 130.2 150.61 113.333 150.61 93.75H146.61ZM137.594 142.682C131.776 156.147 123.505 166.453 112.809 173.694L115.051 177.006C126.455 169.287 135.184 158.343 141.266 144.268L137.594 142.682ZM112.827 173.682C102.152 180.743 89.3749 184.315 74.405 184.315V188.315C90.0351 188.315 103.608 184.577 115.033 177.018L112.827 173.682ZM74.405 184.315C60.1356 184.315 47.6023 180.753 36.7368 173.674L34.5532 177.026C46.1277 184.567 59.4344 188.315 74.405 188.315V184.315ZM36.7544 173.686C25.8807 166.437 17.3541 156.118 11.1992 142.644L7.56081 144.306C13.9859 158.372 22.9693 169.303 34.5356 177.014L36.7544 173.686ZM11.2076 142.663C5.22883 129.21 2.2 112.927 2.2 93.75H-1.8C-1.8 113.333 1.29117 130.2 7.55238 144.287L11.2076 142.663ZM163.938 183L162.499 181.61L159.225 185H163.938V183ZM243.498 100.635L244.936 102.025L244.96 102L244.982 101.976L243.498 100.635ZM255.738 86.355L254.206 85.0686L254.191 85.0869L254.176 85.1056L255.738 86.355ZM263.643 73.86L261.812 73.0545L261.804 73.0726L261.797 73.0908L263.643 73.86ZM264.918 52.185L263.045 52.8872L263.045 52.8872L264.918 52.185ZM260.328 45.045L258.858 46.4016L258.885 46.4309L258.914 46.4592L260.328 45.045ZM252.678 39.945L251.866 41.7726L251.909 41.7918L251.953 41.809L252.678 39.945ZM227.433 41.985L226.355 40.3004L226.339 40.3105L226.323 40.3209L227.433 41.985ZM217.998 53.46L216.173 52.6419L216.161 52.6684L216.15 52.6953L217.998 53.46ZM214.938 70.545V72.545H216.938V70.545H214.938ZM172.608 70.545H170.608V72.545H172.608V70.545ZM180.513 35.61L182.302 36.5044L182.302 36.5044L180.513 35.61ZM204.228 10.365L203.215 8.64037L203.203 8.64756L204.228 10.365ZM272.568 6.03L271.825 7.88695L271.841 7.8934L271.857 7.89957L272.568 6.03ZM293.733 19.29L292.319 20.7042L292.34 20.7256L292.362 20.7464L293.733 19.29ZM306.738 37.395L308.571 36.5958L308.571 36.5958L306.738 37.395ZM303.933 84.315L305.651 85.3386L305.656 85.3307L305.66 85.3227L303.933 84.315ZM285.318 106.245L284.008 104.734L283.996 104.744L283.984 104.755L285.318 106.245ZM243.753 143.475L242.419 141.985L238.522 145.475H243.753V143.475ZM315.153 143.475H317.153V141.475H315.153V143.475ZM315.153 183V185H317.153V183H315.153ZM165.376 184.39L244.936 102.025L242.059 99.2455L162.499 181.61L165.376 184.39ZM244.982 101.976C249.761 96.6843 253.869 91.8933 257.3 87.6044L254.176 85.1056C250.807 89.3167 246.754 94.0457 242.014 99.2944L244.982 101.976ZM257.269 87.6414C260.938 83.2739 263.694 78.9374 265.489 74.6292L261.797 73.0908C260.192 76.9426 257.678 80.9361 254.206 85.0686L257.269 87.6414ZM265.474 74.6655C267.458 70.1552 268.448 65.3752 268.448 60.345H264.448C264.448 64.8348 263.568 69.0648 261.812 73.0545L265.474 74.6655ZM268.448 60.345C268.448 57.3693 267.889 54.4119 266.791 51.4827L263.045 52.8872C263.987 55.3981 264.448 57.8807 264.448 60.345H268.448ZM266.791 51.4828C265.671 48.4973 263.985 45.8741 261.742 43.6308L258.914 46.4592C260.75 48.2959 262.125 50.4326 263.045 52.8872L266.791 51.4828ZM261.798 43.6884C259.533 41.2349 256.72 39.371 253.403 38.081L251.953 41.809C254.756 42.899 257.043 44.4351 258.858 46.4016L261.798 43.6884ZM253.49 38.1174C250.125 36.6217 246.268 35.905 241.968 35.905V39.905C245.828 39.905 249.111 40.5483 251.866 41.7726L253.49 38.1174ZM241.968 35.905C236.177 35.905 230.952 37.3583 226.355 40.3004L228.511 43.6695C232.414 41.1717 236.879 39.905 241.968 39.905V35.905ZM226.323 40.3209C221.899 43.2708 218.521 47.4043 216.173 52.6419L219.823 54.2781C221.895 49.6557 224.807 46.1392 228.542 43.6491L226.323 40.3209ZM216.15 52.6953C213.991 57.9131 212.938 63.8766 212.938 70.545H216.938C216.938 64.2934 217.925 58.8669 219.846 54.2247L216.15 52.6953ZM214.938 68.545H172.608V72.545H214.938V68.545ZM174.608 70.545C174.608 58.0795 177.182 46.7444 182.302 36.5044L178.724 34.7156C173.304 45.5556 170.608 57.5105 170.608 70.545H174.608ZM182.302 36.5044C187.394 26.3207 195.026 18.1852 205.253 12.0824L203.203 8.64756C192.349 15.1247 184.172 23.8193 178.724 34.7156L182.302 36.5044ZM205.241 12.0896C215.58 6.01737 228.217 2.92999 243.243 2.92999V-1.07001C227.669 -1.07001 214.296 2.13261 203.215 8.64042L205.241 12.0896ZM243.243 2.92999C254.09 2.92999 263.605 4.5988 271.825 7.88695L273.311 4.17305C264.531 0.66118 254.496 -1.07001 243.243 -1.07001V2.92999ZM271.857 7.89957C280.132 11.0438 286.936 15.3212 292.319 20.7042L295.147 17.8758C289.31 12.0388 282.004 7.47618 273.278 4.16043L271.857 7.89957ZM292.362 20.7464C297.964 26.0191 302.133 31.8355 304.905 38.1942L308.571 36.5958C305.563 29.6945 301.061 23.4409 295.104 17.8336L292.362 20.7464ZM304.905 38.1942C307.692 44.5884 309.073 51.0322 309.073 57.54H313.073C313.073 50.4478 311.564 43.4616 308.571 36.5958L304.905 38.1942ZM309.073 57.54C309.073 66.8854 306.782 75.4613 302.205 83.3073L305.66 85.3227C310.604 76.8487 313.073 67.5746 313.073 57.54H309.073ZM302.215 83.2914C297.573 91.0826 291.511 98.2311 284.008 104.734L286.628 107.756C294.425 100.999 300.773 93.5274 305.651 85.3386L302.215 83.2914ZM283.984 104.755L242.419 141.985L245.087 144.965L286.652 107.735L283.984 104.755ZM243.753 145.475H315.153V141.475H243.753V145.475ZM313.153 143.475V183H317.153V143.475H313.153ZM315.153 181H163.938V185H315.153V181Z" fill="#19376D" mask="url(#path-1-inside-1_100_4)"/>
</svg>
