<svg width="310" height="187" viewBox="0 0 310 187" fill="none" xmlns="http://www.w3.org/2000/svg">
<mask id="path-1-inside-1_100_5" fill="white">
<path d="M41.765 92.75C41.765 101.08 42.53 108.73 44.06 115.7C45.59 122.5 47.8 128.365 50.69 133.295C53.58 138.055 56.98 141.795 60.89 144.515C64.97 147.065 69.475 148.34 74.405 148.34C79.335 148.34 83.755 147.065 87.665 144.515C91.745 141.795 95.23 138.055 98.12 133.295C101.01 128.365 103.22 122.5 104.75 115.7C106.28 108.73 107.045 101.08 107.045 92.75C107.045 84.42 106.28 76.855 104.75 70.055C103.22 63.085 101.01 57.22 98.12 52.46C95.23 47.53 91.745 43.79 87.665 41.24C83.755 38.52 79.335 37.16 74.405 37.16C69.475 37.16 64.97 38.52 60.89 41.24C56.98 43.79 53.58 47.53 50.69 52.46C47.8 57.22 45.59 63.085 44.06 70.055C42.53 76.855 41.765 84.42 41.765 92.75ZM0.200001 92.75C0.200001 73.37 3.26 56.795 9.38 43.025C15.67 29.255 24.425 18.715 35.645 11.405C46.865 3.92499 59.785 0.184985 74.405 0.184985C89.705 0.184985 102.88 3.92499 113.93 11.405C124.98 18.715 133.48 29.255 139.43 43.025C145.55 56.795 148.61 73.37 148.61 92.75C148.61 112.13 145.55 128.705 139.43 142.475C133.48 156.245 124.98 166.87 113.93 174.35C102.88 181.66 89.705 185.315 74.405 185.315C59.785 185.315 46.865 181.66 35.645 174.35C24.425 166.87 15.67 156.245 9.38 142.475C3.26 128.705 0.200001 112.13 0.200001 92.75ZM228.963 95.555V76.175C233.893 76.175 238.313 75.58 242.223 74.39C246.303 73.03 249.788 71.245 252.678 69.035C255.738 66.825 258.033 64.275 259.563 61.385C261.093 58.495 261.858 55.435 261.858 52.205C261.858 48.805 261.093 45.745 259.563 43.025C258.033 40.305 255.823 38.265 252.933 36.905C250.043 35.375 246.303 34.61 241.713 34.61C234.913 34.61 229.303 36.565 224.883 40.475C220.463 44.385 218.253 49.485 218.253 55.775H178.728C178.728 45.235 181.278 35.8 186.378 27.47C191.648 18.97 199.043 12.34 208.563 7.58C218.083 2.64999 229.133 0.184985 241.713 0.184985C255.143 0.184985 266.533 2.39499 275.883 6.81499C285.233 11.235 292.288 17.185 297.048 24.665C301.978 32.145 304.443 40.475 304.443 49.655C304.443 59.855 301.043 68.355 294.243 75.155C287.613 81.955 278.603 87.055 267.213 90.455C255.823 93.855 243.073 95.555 228.963 95.555ZM239.673 186.08C228.963 186.08 219.358 184.465 210.858 181.235C202.358 178.005 195.133 173.5 189.183 167.72C183.403 161.94 178.898 155.395 175.668 148.085C172.608 140.775 171.078 133.21 171.078 125.39H213.408C213.408 131.17 214.683 136.015 217.233 139.925C219.783 143.835 223.183 146.725 227.433 148.595C231.853 150.465 236.443 151.4 241.203 151.4C246.303 151.4 250.723 150.635 254.463 149.105C258.373 147.575 261.433 145.11 263.643 141.71C265.853 138.31 266.958 134.145 266.958 129.215C266.958 125.475 266.193 122.075 264.663 119.015C263.133 115.955 260.753 113.32 257.523 111.11C254.463 108.73 250.553 106.945 245.793 105.755C241.033 104.565 235.423 103.97 228.963 103.97V82.04C240.693 82.04 251.403 83.06 261.093 85.1C270.953 86.97 279.538 90.03 286.848 94.28C294.158 98.36 299.768 103.63 303.678 110.09C307.588 116.55 309.543 124.285 309.543 133.295C309.543 143.665 306.738 152.845 301.128 160.835C295.518 168.655 287.528 174.86 277.158 179.45C266.788 183.87 254.293 186.08 239.673 186.08Z"/>
</mask>
<path d="M44.06 115.7L42.1065 116.129L42.1088 116.139L44.06 115.7ZM50.69 133.295L48.9646 134.306L48.9724 134.32L48.9804 134.333L50.69 133.295ZM60.89 144.515L59.7479 146.157L59.7883 146.185L59.83 146.211L60.89 144.515ZM87.665 144.515L88.7575 146.19L88.766 146.185L88.7744 146.179L87.665 144.515ZM98.12 133.295L99.8296 134.333L99.8376 134.32L99.8454 134.306L98.12 133.295ZM104.75 115.7L106.701 116.139L106.703 116.129L104.75 115.7ZM104.75 70.055L102.796 70.4838L102.799 70.494L104.75 70.055ZM98.12 52.46L96.3946 53.4714L96.4024 53.4848L96.4104 53.498L98.12 52.46ZM87.665 41.24L86.5229 42.8818L86.5633 42.9099L86.605 42.936L87.665 41.24ZM60.89 41.24L61.9825 42.9152L61.991 42.9097L61.9994 42.9041L60.89 41.24ZM50.69 52.46L52.3996 53.498L52.4076 53.4848L52.4154 53.4714L50.69 52.46ZM44.06 70.055L46.0112 70.494L46.0135 70.4838L44.06 70.055ZM9.38 43.025L7.56081 42.194L7.55655 42.2033L7.55238 42.2127L9.38 43.025ZM35.645 11.405L36.7368 13.0807L36.7456 13.075L36.7544 13.0691L35.645 11.405ZM113.93 11.405L112.809 13.0612L112.818 13.0672L112.827 13.073L113.93 11.405ZM139.43 43.025L137.594 43.8183L137.598 43.8278L137.602 43.8373L139.43 43.025ZM139.43 142.475L137.602 141.663L137.598 141.672L137.594 141.682L139.43 142.475ZM113.93 174.35L115.033 176.018L115.042 176.012L115.051 176.006L113.93 174.35ZM35.645 174.35L34.5356 176.014L34.5444 176.02L34.5532 176.026L35.645 174.35ZM9.38 142.475L7.55238 143.287L7.55655 143.297L7.56081 143.306L9.38 142.475ZM39.765 92.75C39.765 101.201 40.541 108.997 42.1065 116.129L46.0135 115.271C44.519 108.463 43.765 100.959 43.765 92.75H39.765ZM42.1088 116.139C43.6745 123.098 45.9503 129.164 48.9646 134.306L52.4154 132.284C49.6497 127.566 47.5055 121.902 46.0112 115.261L42.1088 116.139ZM48.9804 134.333C51.9911 139.292 55.5731 143.253 59.7479 146.157L62.0321 142.873C58.3869 140.337 55.1689 136.818 52.3996 132.257L48.9804 134.333ZM59.83 146.211C64.236 148.965 69.1099 150.34 74.405 150.34V146.34C69.8401 146.34 65.704 145.165 61.95 142.819L59.83 146.211ZM74.405 150.34C79.7001 150.34 84.5039 148.964 88.7575 146.19L86.5725 142.84C83.0061 145.166 78.9699 146.34 74.405 146.34V150.34ZM88.7744 146.179C93.1289 143.276 96.8084 139.309 99.8296 134.333L96.4104 132.257C93.6516 136.801 90.3611 140.314 86.5556 142.851L88.7744 146.179ZM99.8454 134.306C102.86 129.164 105.136 123.098 106.701 116.139L102.799 115.261C101.305 121.902 99.1603 127.566 96.3946 132.284L99.8454 134.306ZM106.703 116.129C108.269 108.997 109.045 101.201 109.045 92.75H105.045C105.045 100.959 104.291 108.463 102.797 115.271L106.703 116.129ZM109.045 92.75C109.045 84.3 108.269 76.5848 106.701 69.616L102.799 70.494C104.291 77.1252 105.045 84.54 105.045 92.75H109.045ZM106.703 69.6262C105.139 62.4986 102.861 56.4147 99.8296 51.422L96.4104 53.498C99.1591 58.0252 101.301 63.6714 102.797 70.4838L106.703 69.6262ZM99.8454 51.4486C96.8226 46.2921 93.1258 42.2945 88.725 39.544L86.605 42.936C90.3642 45.2855 93.6374 48.7679 96.3946 53.4714L99.8454 51.4486ZM88.8071 39.5982C84.5496 36.6364 79.7281 35.16 74.405 35.16V39.16C78.9419 39.16 82.9604 40.4035 86.5229 42.8818L88.8071 39.5982ZM74.405 35.16C69.0824 35.16 64.191 36.6356 59.7806 39.5759L61.9994 42.9041C65.749 40.4044 69.8676 39.16 74.405 39.16V35.16ZM59.7975 39.5648C55.5762 42.3178 51.9768 46.3102 48.9646 51.4486L52.4154 53.4714C55.1833 48.7498 58.3838 45.2622 61.9825 42.9152L59.7975 39.5648ZM48.9804 51.422C45.9491 56.4147 43.6711 62.4986 42.1065 69.6262L46.0135 70.4838C47.5089 63.6714 49.6509 58.0252 52.3996 53.498L48.9804 51.422ZM42.1088 69.616C40.5408 76.5848 39.765 84.3 39.765 92.75H43.765C43.765 84.54 44.5192 77.1252 46.0112 70.494L42.1088 69.616ZM2.2 92.75C2.2 73.5729 5.22883 57.2896 11.2076 43.8373L7.55238 42.2127C1.29117 56.3004 -1.8 73.1671 -1.8 92.75H2.2ZM11.1992 43.856C17.3528 30.3846 25.8745 20.1577 36.7368 13.0807L34.5532 9.72927C22.9755 17.2723 13.9872 28.1254 7.56081 42.194L11.1992 43.856ZM36.7544 13.0691C47.6181 5.82663 60.1451 2.18498 74.405 2.18498V-1.81502C59.4249 -1.81502 46.1119 2.02334 34.5356 9.74089L36.7544 13.0691ZM74.405 2.18498C89.3657 2.18498 102.137 5.83687 112.809 13.0612L115.051 9.74877C103.623 2.01311 90.0443 -1.81502 74.405 -1.81502V2.18498ZM112.827 13.073C123.511 20.1413 131.777 30.3562 137.594 43.8183L141.266 42.2317C135.183 28.1537 126.449 17.2887 115.033 9.73695L112.827 13.073ZM137.602 43.8373C143.581 57.2896 146.61 73.5729 146.61 92.75H150.61C150.61 73.1671 147.519 56.3004 141.258 42.2127L137.602 43.8373ZM146.61 92.75C146.61 111.927 143.581 128.21 137.602 141.663L141.258 143.287C147.519 129.2 150.61 112.333 150.61 92.75H146.61ZM137.594 141.682C131.776 155.147 123.505 165.453 112.809 172.694L115.051 176.006C126.455 168.287 135.184 157.343 141.266 143.268L137.594 141.682ZM112.827 172.682C102.152 179.743 89.3749 183.315 74.405 183.315V187.315C90.0351 187.315 103.608 183.577 115.033 176.018L112.827 172.682ZM74.405 183.315C60.1356 183.315 47.6023 179.753 36.7368 172.674L34.5532 176.026C46.1277 183.567 59.4344 187.315 74.405 187.315V183.315ZM36.7544 172.686C25.8807 165.437 17.3541 155.118 11.1992 141.644L7.56081 143.306C13.9859 157.372 22.9693 168.303 34.5356 176.014L36.7544 172.686ZM11.2076 141.663C5.22883 128.21 2.2 111.927 2.2 92.75H-1.8C-1.8 112.333 1.29117 129.2 7.55238 143.287L11.2076 141.663ZM228.963 95.555H226.963V97.555H228.963V95.555ZM228.963 76.175V74.175H226.963V76.175H228.963ZM242.223 74.39L242.805 76.3033L242.83 76.2957L242.855 76.2874L242.223 74.39ZM252.678 69.035L251.507 67.4136L251.485 67.4297L251.463 67.4463L252.678 69.035ZM259.563 43.025L257.82 44.0055L257.82 44.0055L259.563 43.025ZM252.933 36.905L251.997 38.6726L252.039 38.6946L252.081 38.7146L252.933 36.905ZM224.883 40.475L223.558 38.977L223.558 38.977L224.883 40.475ZM218.253 55.775V57.775H220.253V55.775H218.253ZM178.728 55.775H176.728V57.775H178.728V55.775ZM186.378 27.47L184.678 26.4161L184.672 26.4257L186.378 27.47ZM208.563 7.58L209.457 9.36885L209.47 9.36251L209.483 9.35598L208.563 7.58ZM275.883 6.81499L276.738 5.00685L276.738 5.00685L275.883 6.81499ZM297.048 24.665L295.361 25.7387L295.369 25.7522L295.378 25.7656L297.048 24.665ZM294.243 75.155L292.829 73.7408L292.82 73.7497L292.811 73.7588L294.243 75.155ZM267.213 90.455L266.641 88.5386L266.641 88.5386L267.213 90.455ZM210.858 181.235L210.147 183.105L210.147 183.105L210.858 181.235ZM189.183 167.72L187.769 169.134L187.779 169.144L187.789 169.155L189.183 167.72ZM175.668 148.085L173.823 148.857L173.831 148.875L173.839 148.893L175.668 148.085ZM171.078 125.39V123.39H169.078V125.39H171.078ZM213.408 125.39H215.408V123.39H213.408V125.39ZM227.433 148.595L226.627 150.426L226.64 150.431L226.654 150.437L227.433 148.595ZM254.463 149.105L253.734 147.243L253.72 147.248L253.706 147.254L254.463 149.105ZM263.643 141.71L261.966 140.62L261.966 140.62L263.643 141.71ZM264.663 119.015L262.874 119.909L262.874 119.909L264.663 119.015ZM257.523 111.11L256.295 112.689L256.343 112.726L256.394 112.761L257.523 111.11ZM228.963 103.97H226.963V105.97H228.963V103.97ZM228.963 82.04V80.04H226.963V82.04H228.963ZM261.093 85.1L260.681 87.0571L260.701 87.0612L260.72 87.065L261.093 85.1ZM286.848 94.28L285.843 96.009L285.858 96.0178L285.873 96.0264L286.848 94.28ZM303.678 110.09L301.967 111.126L301.967 111.126L303.678 110.09ZM301.128 160.835L302.753 162.001L302.759 161.993L302.765 161.984L301.128 160.835ZM277.158 179.45L277.942 181.29L277.955 181.284L277.967 181.279L277.158 179.45ZM230.963 95.555V76.175H226.963V95.555H230.963ZM228.963 78.175C234.051 78.175 238.672 77.5612 242.805 76.3033L241.641 72.4766C237.954 73.5988 233.735 74.175 228.963 74.175V78.175ZM242.855 76.2874C247.108 74.8698 250.798 72.99 253.893 70.6237L251.463 67.4463C248.777 69.4999 245.498 71.1902 241.59 72.4926L242.855 76.2874ZM253.849 70.6564C257.119 68.2944 259.636 65.521 261.33 62.3208L257.795 60.4492C256.43 63.0289 254.356 65.3556 251.507 67.4136L253.849 70.6564ZM261.33 62.3208C263.011 59.1462 263.858 55.7654 263.858 52.205H259.858C259.858 55.1046 259.175 57.8438 257.795 60.4492L261.33 62.3208ZM263.858 52.205C263.858 48.4931 263.019 45.0902 261.306 42.0445L257.82 44.0055C259.167 46.3998 259.858 49.1169 259.858 52.205H263.858ZM261.306 42.0445C259.567 38.9532 257.041 36.6279 253.784 35.0954L252.081 38.7146C254.605 39.9021 256.499 41.6568 257.82 44.0055L261.306 42.0445ZM253.869 35.1374C250.598 33.4057 246.505 32.61 241.713 32.61V36.61C246.101 36.61 249.488 37.3443 251.997 38.6726L253.869 35.1374ZM241.713 32.61C234.504 32.61 228.399 34.6947 223.558 38.977L226.208 41.973C230.207 38.4353 235.322 36.61 241.713 36.61V32.61ZM223.558 38.977C218.678 43.294 216.253 48.9547 216.253 55.775H220.253C220.253 50.0153 222.248 45.476 226.208 41.973L223.558 38.977ZM218.253 53.775H178.728V57.775H218.253V53.775ZM180.728 55.775C180.728 45.5733 183.191 36.5051 188.084 28.5143L184.672 26.4257C179.365 35.0949 176.728 44.8967 176.728 55.775H180.728ZM188.078 28.5239C193.14 20.3592 200.246 13.9743 209.457 9.36885L207.668 5.79114C197.839 10.7057 190.156 17.5808 184.678 26.4161L188.078 28.5239ZM209.483 9.35598C218.673 4.59671 229.398 2.18498 241.713 2.18498V-1.81502C228.868 -1.81502 217.493 0.703265 207.643 5.80401L209.483 9.35598ZM241.713 2.18498C254.932 2.18498 266.013 4.36129 275.028 8.62314L276.738 5.00685C267.053 0.42868 255.354 -1.81502 241.713 -1.81502V2.18498ZM275.028 8.62313C284.095 12.9092 290.835 18.6272 295.361 25.7387L298.735 23.5912C293.741 15.7428 286.371 9.56084 276.738 5.00685L275.028 8.62313ZM295.378 25.7656C300.087 32.9105 302.443 40.856 302.443 49.655H306.443C306.443 40.094 303.869 31.3795 298.718 23.5644L295.378 25.7656ZM302.443 49.655C302.443 59.3603 299.229 67.3404 292.829 73.7408L295.657 76.5692C302.857 69.3696 306.443 60.3497 306.443 49.655H302.443ZM292.811 73.7588C286.471 80.261 277.785 85.2118 266.641 88.5386L267.785 92.3714C279.42 88.8982 288.755 83.649 295.675 76.5512L292.811 73.7588ZM266.641 88.5386C255.467 91.8739 242.914 93.555 228.963 93.555V97.555C243.232 97.555 256.178 95.8361 267.785 92.3714L266.641 88.5386ZM239.673 184.08C229.163 184.08 219.805 182.495 211.568 179.365L210.147 183.105C218.911 186.435 228.762 188.08 239.673 188.08V184.08ZM211.568 179.365C203.299 176.223 196.313 171.858 190.576 166.285L187.789 169.155C193.953 175.142 201.417 179.787 210.147 183.105L211.568 179.365ZM190.597 166.306C184.988 160.696 180.625 154.356 177.497 147.277L173.839 148.893C177.171 156.434 181.818 163.184 187.769 169.134L190.597 166.306ZM177.513 147.313C174.554 140.244 173.078 132.941 173.078 125.39H169.078C169.078 133.479 170.662 141.306 173.823 148.857L177.513 147.313ZM171.078 127.39H213.408V123.39H171.078V127.39ZM211.408 125.39C211.408 131.465 212.75 136.713 215.558 141.018L218.908 138.832C216.616 135.317 215.408 130.875 215.408 125.39H211.408ZM215.558 141.018C218.319 145.251 222.02 148.398 226.627 150.426L228.238 146.764C224.346 145.052 221.247 142.419 218.908 138.832L215.558 141.018ZM226.654 150.437C231.318 152.41 236.173 153.4 241.203 153.4V149.4C236.713 149.4 232.388 148.52 228.212 146.753L226.654 150.437ZM241.203 153.4C246.497 153.4 251.186 152.607 255.22 150.956L253.706 147.254C250.26 148.663 246.109 149.4 241.203 149.4V153.4ZM255.192 150.967C259.476 149.291 262.874 146.563 265.32 142.8L261.966 140.62C259.992 143.657 257.27 145.859 253.734 147.243L255.192 150.967ZM265.32 142.8C267.782 139.012 268.958 134.448 268.958 129.215H264.958C264.958 133.842 263.924 137.608 261.966 140.62L265.32 142.8ZM268.958 129.215C268.958 125.194 268.133 121.483 266.452 118.121L262.874 119.909C264.253 122.667 264.958 125.756 264.958 129.215H268.958ZM266.452 118.121C264.749 114.715 262.122 111.833 258.652 109.459L256.394 112.761C259.384 114.807 261.517 117.195 262.874 119.909L266.452 118.121ZM258.751 109.531C255.421 106.941 251.239 105.055 246.278 103.815L245.308 107.695C249.867 108.835 253.505 110.519 256.295 112.689L258.751 109.531ZM246.278 103.815C241.318 102.575 235.538 101.97 228.963 101.97V105.97C235.308 105.97 240.747 106.555 245.308 107.695L246.278 103.815ZM230.963 103.97V82.04H226.963V103.97H230.963ZM228.963 84.04C240.579 84.04 251.148 85.0503 260.681 87.0571L261.505 83.1429C251.657 81.0697 240.807 80.04 228.963 80.04V84.04ZM260.72 87.065C270.398 88.9004 278.761 91.892 285.843 96.009L287.853 92.551C280.314 88.168 271.508 85.0396 261.466 83.135L260.72 87.065ZM285.873 96.0264C292.914 99.9561 298.255 104.994 301.967 111.126L305.389 109.054C301.28 102.266 295.402 96.7639 287.823 92.5336L285.873 96.0264ZM301.967 111.126C305.654 117.218 307.543 124.579 307.543 133.295H311.543C311.543 123.991 309.522 115.882 305.389 109.054L301.967 111.126ZM307.543 133.295C307.543 143.281 304.85 152.054 299.491 159.686L302.765 161.984C308.626 153.636 311.543 144.049 311.543 133.295H307.543ZM299.503 159.669C294.135 167.151 286.451 173.15 276.348 177.621L277.967 181.279C288.605 176.57 296.901 170.159 302.753 162.001L299.503 159.669ZM276.374 177.61C266.313 181.898 254.1 184.08 239.673 184.08V188.08C254.486 188.08 267.262 185.842 277.942 181.29L276.374 177.61Z" fill="#19376D" mask="url(#path-1-inside-1_100_5)"/>
</svg>
